<svg width="16" height="16" viewBox="0 0 16 16" fill="none" xmlns="http://www.w3.org/2000/svg">
<line x1="2" y1="1" x2="2" y2="14" stroke="#2C3D63" stroke-width="2"/>
<line x1="9.5" y1="1" x2="9.5" y2="15" stroke="#2C3D63"/>
<path d="M2.39476 0.815674L9.02078 15.0252" stroke="#2C3D63"/>
<path d="M10 15C10.6566 15 11.3068 14.8965 11.9134 14.6955C12.52 14.4945 13.0712 14.1999 13.5355 13.8284C13.9998 13.457 14.3681 13.016 14.6194 12.5307C14.8707 12.0454 15 11.5253 15 11C15 10.4747 14.8707 9.95457 14.6194 9.46927C14.3681 8.98396 13.9998 8.54301 13.5355 8.17157C13.0712 7.80014 12.52 7.5055 11.9134 7.30448C11.3068 7.10346 10.6566 7 10 7L10 11V15Z" fill="#7E544D"/>
<path d="M10 8C10.6566 8 11.3068 7.90947 11.9134 7.73358C12.52 7.55769 13.0712 7.29988 13.5355 6.97487C13.9998 6.64987 14.3681 6.26403 14.6194 5.83939C14.8707 5.41475 15 4.95963 15 4.5C15 4.04037 14.8707 3.58525 14.6194 3.16061C14.3681 2.73597 13.9998 2.35013 13.5355 2.02513C13.0712 1.70012 12.52 1.44231 11.9134 1.26642C11.3068 1.09053 10.6566 1 10 1L10 4.5V8Z" fill="#FFB440"/>
</svg>
