<?xml version="1.0" encoding="iso-8859-1"?>
<!-- Generator: Adobe Illustrator 19.0.0, SVG Export Plug-In . SVG Version: 6.00 Build 0)  -->
<svg version="1.1" id="Layer_1" xmlns="http://www.w3.org/2000/svg" xmlns:xlink="http://www.w3.org/1999/xlink" x="0px" y="0px"
	 viewBox="0 0 512 512" style="enable-background:new 0 0 512 512;" xml:space="preserve">
<g>
	<g>
		<g>
			<path d="M411.707,437.758c-43.304,37.133-98.601,57.583-155.707,57.583c-63.93,0-124.034-24.896-169.24-70.102
				c-45.206-45.205-70.102-105.309-70.102-169.24c0-64.342,25.181-124.723,70.904-170.024c3.268-3.238,3.293-8.511,0.056-11.779
				c-3.237-3.267-8.511-3.292-11.778-0.054C26.934,122.595,0.001,187.179,0.001,255.999c0,68.381,26.629,132.668,74.98,181.02
				C123.333,485.371,187.619,512,256,512c61.081,0,120.23-21.875,166.55-61.596c3.492-2.995,3.895-8.253,0.901-11.745
				C420.457,435.167,415.198,434.763,411.707,437.758z"/>
			<path d="M437.019,74.98C388.667,26.629,324.381,0,256,0c-56.108,0-109.383,17.825-154.067,51.547
				c-3.671,2.771-4.402,7.994-1.63,11.665c2.771,3.671,7.994,4.402,11.665,1.63C153.737,33.32,203.542,16.658,256,16.658
				c63.931,0,124.035,24.896,169.24,70.103c45.206,45.205,70.102,105.309,70.102,169.24c0,58.8-21.539,115.341-60.65,159.207
				c-3.061,3.433-2.76,8.698,0.674,11.759c1.588,1.416,3.568,2.112,5.54,2.112c2.292,0,4.574-0.941,6.219-2.786
				c41.835-46.921,64.875-107.399,64.875-170.294C511.999,187.62,485.371,123.333,437.019,74.98z"/>
			<path d="M293.134,149.981c-2.585-1.485-5.767-1.477-8.343,0.024l-169.579,98.798c-2.562,1.491-4.137,4.233-4.137,7.196
				s1.576,5.704,4.137,7.196l169.579,98.799c1.295,0.755,2.743,1.133,4.192,1.133c1.433,0,2.865-0.369,4.151-1.109
				c2.585-1.485,4.179-4.239,4.179-7.221V305.79h89.49c4.6,0,8.329-3.729,8.329-8.329v-82.923c0-4.6-3.729-8.329-8.329-8.329h-89.49
				v-49.008C297.313,154.221,295.719,151.467,293.134,149.981z M378.472,222.867v66.265h-89.49c-4.6,0-8.329,3.729-8.329,8.329
				v42.845l-144.706-84.307l144.706-84.307v42.845c0,4.6,3.729,8.329,8.329,8.329H378.472z"/>
		</g>
	</g>
</g>
<g>
</g>
<g>
</g>
<g>
</g>
<g>
</g>
<g>
</g>
<g>
</g>
<g>
</g>
<g>
</g>
<g>
</g>
<g>
</g>
<g>
</g>
<g>
</g>
<g>
</g>
<g>
</g>
<g>
</g>
</svg>
